<svg width="31" height="31" fill="none" xmlns="http://www.w3.org/2000/svg"><path d="M15.5 0C6.952 0 0 6.952 0 15.5S6.952 31 15.5 31 31 24.048 31 15.5 24.048 0 15.5 0Zm0 1.069c7.957 0 14.431 6.474 14.431 14.431 0 7.957-6.474 14.431-14.431 14.431-7.957 0-14.431-6.474-14.431-14.431 0-7.957 6.474-14.431 14.431-14.431Zm-.234 2.142c-3.15.063-6.2 1.338-8.46 3.595a12.217 12.217 0 0 0-3.6 8.694c0 3.284 1.279 6.37 3.6 8.694a.544.544 0 0 0 .378.156.537.537 0 0 0 .38-.915A11.143 11.143 0 0 1 4.276 15.5c0-2.998 1.167-5.817 3.288-7.936a11.26 11.26 0 0 1 9.721-3.146.536.536 0 0 0 .17-1.056 12.078 12.078 0 0 0-2.189-.15Zm4.328.737a.535.535 0 0 0-.167 1.036c.382.142.76.307 1.123.488a.532.532 0 0 0 .718-.236.535.535 0 0 0-.235-.718c-.399-.2-.812-.38-1.23-.537a.561.561 0 0 0-.209-.033Zm3.086 1.758a.533.533 0 0 0-.265.95c.355.28.7.585 1.02.908a11.143 11.143 0 0 1 3.29 7.936c0 2.998-1.168 5.817-3.29 7.936a.537.537 0 0 0 .759.758 12.217 12.217 0 0 0 3.6-8.694c0-3.284-1.279-6.37-3.6-8.694-.355-.353-.731-.687-1.12-.991a.539.539 0 0 0-.394-.109ZM10.356 24.263a.534.534 0 0 0-.529.263l-.534.927a.533.533 0 1 0 .923.534l.534-.927a.534.534 0 0 0-.394-.797Zm10.288 0a.535.535 0 0 0-.395.8l.535.924a.532.532 0 0 0 .729.194.53.53 0 0 0 .194-.728l-.534-.925a.535.535 0 0 0-.529-.265Zm-7.917 1.041a.538.538 0 0 0-.442.393l-.276 1.033a.534.534 0 0 0 1.034.276l.275-1.034a.532.532 0 0 0-.59-.668Zm5.546 0a.535.535 0 0 0-.593.668l.277 1.034a.536.536 0 0 0 .656.378.536.536 0 0 0 .378-.654l-.276-1.033a.538.538 0 0 0-.442-.393Zm-2.773.351a.536.536 0 0 0-.534.535v1.069a.536.536 0 0 0 1.069 0v-1.07a.536.536 0 0 0-.535-.534Z" fill="#000"/></svg>