<svg width="45" height="36" fill="none" xmlns="http://www.w3.org/2000/svg"><path d="M2.216 0a2.074 2.074 0 0 0-.687 4.027v19.641a2.069 2.069 0 0 0-1.375 1.947v4.154c0 1.144.926 2.077 2.062 2.077h3.492C6.043 34.191 8.047 36 10.466 36c2.42 0 4.423-1.81 4.76-4.154h15.232C30.793 34.191 32.797 36 35.216 36c2.42 0 4.423-1.81 4.76-4.154h2.115a2.074 2.074 0 0 0 2.063-2.077v-4.154c0-.911-.588-1.676-1.4-1.957.009-.038.025-.076.025-.12v-2.647c0-.665-.188-1.314-.548-1.874l-4.939-7.734a3.412 3.412 0 0 0-2.89-1.59h-1.248V8.307a.691.691 0 0 0-.688-.693.691.691 0 0 0-.687.693v1.384h-2.75V4.027A2.075 2.075 0 0 0 28.34 0H2.216Zm0 1.385h26.125a.691.691 0 0 1 0 1.385H2.216a.691.691 0 0 1-.687-.693c0-.381.309-.692.687-.692Zm.688 2.769h24.75v19.385H2.904V4.153Zm12.375 1.384c-4.55 0-8.25 3.727-8.25 8.308 0 4.581 3.7 8.308 8.25 8.308s8.25-3.727 8.25-8.308c0-4.581-3.7-8.308-8.25-8.308Zm0 1.385c3.792 0 6.875 3.105 6.875 6.923 0 3.819-3.083 6.923-6.875 6.923s-6.875-3.104-6.875-6.923c0-3.818 3.083-6.923 6.875-6.923Zm13.75 4.154h5.374c.703 0 1.353.357 1.735.952l4.938 7.737c.215.338.328.727.328 1.125v2.648H29.029V11.076Zm-10.313.038a.685.685 0 0 0-.486.203l-4.326 4.356-1.577-1.587a.684.684 0 0 0-.972 0 .695.695 0 0 0 0 .979l2.063 2.077a.68.68 0 0 0 .972 0l4.812-4.846a.695.695 0 0 0 0-.98.685.685 0 0 0-.486-.202ZM31.78 12.46c-.758 0-1.375.623-1.375 1.385V18c0 .763.617 1.385 1.375 1.385h4.947c.5 0 .961-.274 1.203-.714a1.39 1.39 0 0 0-.038-1.404l-2.578-4.156a1.368 1.368 0 0 0-1.166-.65H31.78Zm0 1.385h2.369L36.73 18h-4.952v-4.154Zm-.688 6.923a.691.691 0 0 0-.687.693c0 .38.309.692.687.692h1.375a.691.691 0 0 0 .688-.692.691.691 0 0 0-.688-.693h-1.375ZM2.216 24.923h39.875c.379 0 .688.311.688.692v4.154a.691.691 0 0 1-.688.693h-2.116c-.336-2.345-2.339-4.154-4.759-4.154-2.42 0-4.423 1.809-4.758 4.154H15.225c-.336-2.345-2.339-4.154-4.759-4.154-2.42 0-4.423 1.809-4.758 4.154H2.216a.691.691 0 0 1-.687-.693v-.692a.691.691 0 0 0 .687-.692V27a.691.691 0 0 0-.687-.692v-.693c0-.38.309-.692.687-.692Zm2.75 1.385A.691.691 0 0 0 4.28 27v1.385c0 .38.309.692.687.692a.691.691 0 0 0 .688-.692V27a.691.691 0 0 0-.688-.692Zm11 0a.691.691 0 0 0-.687.692v1.385c0 .38.309.692.687.692a.691.691 0 0 0 .688-.692V27a.691.691 0 0 0-.688-.692Zm3.438 0a.691.691 0 0 0-.688.692v1.385c0 .38.31.692.688.692a.691.691 0 0 0 .687-.692V27a.691.691 0 0 0-.687-.692Zm3.437 0a.691.691 0 0 0-.687.692v1.385c0 .38.309.692.687.692a.691.691 0 0 0 .688-.692V27a.691.691 0 0 0-.688-.692Zm3.438 0a.691.691 0 0 0-.688.692v1.385c0 .38.31.692.688.692a.691.691 0 0 0 .687-.692V27a.691.691 0 0 0-.687-.692Zm3.437 0a.691.691 0 0 0-.687.692v1.385c0 .38.309.692.687.692a.691.691 0 0 0 .688-.692V27a.691.691 0 0 0-.688-.692Zm11 0a.691.691 0 0 0-.687.692v1.385c0 .38.309.692.687.692a.691.691 0 0 0 .688-.692V27a.691.691 0 0 0-.688-.692Zm-30.25 1.384c1.896 0 3.438 1.553 3.438 3.462 0 1.91-1.542 3.461-3.438 3.461-1.896 0-3.437-1.552-3.437-3.461 0-1.91 1.541-3.462 3.437-3.462Zm24.75 0c1.896 0 3.438 1.553 3.438 3.462 0 1.91-1.542 3.461-3.438 3.461-1.896 0-3.437-1.552-3.437-3.461 0-1.91 1.541-3.462 3.437-3.462Zm-24.75 2.077c-.76 0-1.375.62-1.375 1.385a1.38 1.38 0 0 0 1.375 1.384c.76 0 1.375-.619 1.375-1.384 0-.765-.615-1.385-1.375-1.385Zm24.75 0c-.76 0-1.375.62-1.375 1.385a1.38 1.38 0 0 0 1.375 1.384c.76 0 1.375-.619 1.375-1.384 0-.765-.615-1.385-1.375-1.385Z" fill="#fff"/></svg>